<?xml version="1.0" encoding="UTF-8"?>
<svg xmlns="http://www.w3.org/2000/svg" xmlns:xlink="http://www.w3.org/1999/xlink" width="153px" height="26px" viewBox="0 0 153 26">
  <title>Black-Diamond-Black</title>
  <g id="Page-1" stroke="none" stroke-width="1" fill="none" fill-rule="evenodd">
    <g id="Logo-Entry-Copy" transform="translate(-935.000000, -563.000000)" fill="#121118">
      <g id="Color-Variations" transform="translate(589.000000, 548.000000)">
        <path d="M491.047899,21.8045638 L491.047899,23.9334645 L491.392027,23.9334645 L491.392027,22.2160294 L491.908518,23.9334645 L492.215175,23.9334645 L492.724471,22.2160294 L492.724471,23.9334645 L493.057208,23.9334645 L493.057208,21.8045638 L492.531124,21.8045638 L492.0569,23.3279918 L491.581776,21.8045638 L491.047899,21.8045638 Z M489.754424,22.1557258 L489.754424,23.9334645 L490.12493,23.9334645 L490.12493,22.1557258 L490.732549,22.1557258 L490.732549,21.8045638 L489.146506,21.8045638 L489.146506,22.1557258 L489.754424,22.1557258 Z M495.694518,26.6696654 C494.971791,25.9170884 493.989769,25.7060257 493.011644,25.7060257 C490.002028,25.7605426 489.123724,28.3316699 489.123724,30.2723503 C489.123724,32.9829679 491.222661,34.6248711 493.099474,34.6248711 C494.317409,34.6248711 495.367777,34.1518836 495.884268,33.2969731 L495.917542,33.2969731 L495.917542,34.2749274 L499,34.2749274 L499,21.7920767 L495.694518,21.7920767 L495.694518,26.6696654 Z M495.640861,30.1669712 C495.640861,31.6873536 494.986779,32.4216568 494.075201,32.4216568 C493.183707,32.4216568 492.544314,31.6873536 492.544314,30.1669712 C492.544314,28.6447615 493.183707,27.9107628 494.075201,27.9107628 C494.986779,27.9107628 495.640861,28.6447615 495.640861,30.1669712 L495.640861,30.1669712 Z M482.143753,34.2749274 L482.143753,29.5898229 C482.143753,28.8214085 482.691719,28.1203027 483.483991,28.1203027 C484.243589,28.1203027 484.606302,28.5046622 484.606302,29.3629229 L484.606302,34.2749274 L487.909086,34.2749274 L487.909086,28.6447615 C487.841639,26.6520007 486.344325,25.7060257 484.982204,25.7060257 C483.790348,25.7060257 482.607485,26.091908 482.125168,27.4563537 L482.091894,27.4563537 L482.091894,26.058406 L478.83977,26.058406 L478.83977,34.2749274 L482.143753,34.2749274 Z M455.301216,34.2749274 L455.301216,29.2389654 C455.301216,28.3673039 455.833295,28.1203027 456.366572,28.1203027 C456.900449,28.1203027 457.416041,28.3673039 457.416041,29.2389654 L457.416041,34.2749274 L460.719724,34.2749274 L460.719724,29.2389654 C460.719724,28.3673039 461.2545,28.1203027 461.788677,28.1203027 C462.320756,28.1203027 462.839045,28.3673039 462.839045,29.2389654 L462.839045,34.2749274 L466.142728,34.2749274 L466.142728,29.2389654 C466.142728,26.4086543 464.577668,25.7060257 462.823158,25.7060257 C461.857023,25.7060257 460.755695,26.1619576 460.25779,27.1779824 C459.758086,26.1966779 458.929842,25.7060257 457.795241,25.7060257 C456.969695,25.7060257 455.761352,26.058406 455.196599,27.2443773 L455.161527,27.2443773 L455.161527,26.058406 L451.993936,26.058406 L451.993936,34.2749274 L455.301216,34.2749274 Z M436.016593,24.8569019 L439.321175,24.8569019 L439.321175,21.8459844 L436.016593,21.8459844 L436.016593,24.8569019 Z M436.016593,34.2749274 L439.321175,34.2749274 L439.321175,26.2420579 L436.016593,26.2420579 L436.016593,34.2749274 Z M425.847748,31.7229875 L427.82738,31.7229875 C430.168525,31.7229875 431.167034,30.3241261 431.167034,28.0307609 C431.167034,25.1480648 429.598677,24.3440165 427.82738,24.3440165 L425.847748,24.3440165 L425.847748,31.7229875 Z M422.336629,21.7920767 L427.619944,21.7920767 C432.354394,21.7920767 434.88379,23.7141786 434.88379,28.0307609 C434.88379,32.3513026 432.354394,34.2749274 427.619944,34.2749274 L422.336629,34.2749274 L422.336629,21.7920767 Z M472.492298,32.706424 C473.545064,32.706424 474.132599,31.8676553 474.132599,30.170626 C474.132599,28.4717693 473.545064,27.6342189 472.492298,27.6342189 C471.44283,27.6342189 470.855295,28.4717693 470.855295,30.170626 C470.855295,31.8676553 471.44283,32.706424 472.492298,32.706424 L472.492298,32.706424 Z M472.492298,34.6300487 C469.061816,34.6300487 467.372354,32.6726174 467.372354,30.170626 C467.372354,27.6695483 469.061816,25.7090713 472.492298,25.7090713 C475.926078,25.7090713 477.618238,27.6695483 477.618238,30.170626 C477.618238,32.6726174 475.926078,34.6300487 472.492298,34.6300487 L472.492298,34.6300487 Z M450.639609,34.2715772 C450.200457,33.7897573 450.122519,33.1419501 450.122519,32.2468372 L450.122519,31.9757755 C450.118921,31.9721207 450.116224,31.9721207 450.113526,31.9721207 L450.113526,26.0456143 L447.177651,26.0456143 L447.177651,26.7835723 C446.566436,26.049269 445.565229,25.6904929 444.614382,25.6904929 C442.165022,25.6904929 440.469865,27.7490395 440.469865,30.1456518 C440.469865,32.5468325 442.195598,34.6175616 444.647656,34.6175616 C445.61469,34.6175616 446.817637,34.2018321 447.271777,33.2515931 L447.283168,33.2515931 C447.279571,33.7139209 447.317341,34.03219 447.462426,34.2715772 L450.639609,34.2715772 Z M447.177651,30.1383422 C447.177651,31.6562881 446.52267,32.3832818 445.611092,32.3832818 C444.698615,32.3832818 444.062819,31.6562881 444.062819,30.1383422 C444.062819,28.6252694 444.698615,27.890357 445.611092,27.890357 C446.52267,27.890357 447.177651,28.6252694 447.177651,30.1383422 L447.177651,30.1383422 Z M411.462743,34.2749274 L411.462743,32.073845 L412.495425,31.0575157 L414.147417,34.2749274 L417.865671,34.2749274 L414.801798,28.9267876 L417.571604,26.058406 L413.614439,26.058406 L411.47953,28.4717693 L411.47953,21.7920767 L408.175547,21.7920767 L408.175547,34.2749274 L411.462743,34.2749274 Z M407.005874,28.9615078 C406.662346,26.8962609 404.699501,25.7060257 402.395226,25.7060257 C399.123918,25.7060257 397.471926,28.0505576 397.471926,30.113368 C397.471926,33.0186018 399.605936,34.6248711 402.324182,34.6248711 C403.477968,34.6248711 404.615268,34.4168541 405.474087,33.8930044 C406.335605,33.3658045 406.919842,32.5279496 407.005874,31.2697966 L403.704589,31.2697966 C403.632646,31.9855215 403.391937,32.5635835 402.395226,32.5635835 C401.671599,32.5635835 400.948872,32.1773967 400.948872,30.0439275 C400.948872,28.5582654 401.498636,27.7694452 402.359255,27.7694452 C402.739354,27.7694452 403.013336,27.875738 403.219873,28.0852779 C403.408723,28.2966451 403.530727,28.594813 403.599972,28.9615078 L407.005874,28.9615078 Z M382.264073,34.2749274 L385.567756,34.2749274 L385.567756,21.7920767 L382.264073,21.7920767 L382.264073,34.2749274 Z M373.107826,29.0659732 L373.107826,31.79456 L375.206764,31.79456 C377.082378,31.79456 377.565595,31.374262 377.565595,30.4292006 C377.565595,29.3808921 377.100963,29.0659732 375.93039,29.0659732 L373.107826,29.0659732 Z M373.107826,24.2709212 L373.107826,26.6520007 L375.4139,26.6520007 C376.704977,26.6520007 377.030819,26.1966779 377.030819,25.427959 C377.030819,24.7286805 376.704977,24.2709212 375.4139,24.2709212 L373.107826,24.2709212 Z M369.594909,21.7920767 L376.084768,21.7920767 C379.078796,21.7920767 380.541038,22.9113485 380.541038,24.7634008 C380.541038,26.3903805 379.872568,27.1779824 378.305109,27.596453 L378.305109,27.6311733 C380.007761,27.8595961 381.076714,28.9079046 381.076714,30.7084856 C381.076714,32.2815575 380.214297,34.2749274 376.03231,34.2749274 L369.594909,34.2749274 L369.594909,21.7920767 Z M396.854415,34.284978 C396.413764,33.8022444 396.337325,33.1559601 396.337325,32.2620654 L396.337325,31.9873489 C396.334627,31.9855215 396.33103,31.9855215 396.327733,31.9855215 L396.327733,26.0571877 L393.392758,26.0571877 L393.392758,26.796364 C392.779743,26.0620607 391.780335,25.70298 390.828289,25.70298 C388.37803,25.70298 386.684971,27.7606129 386.684971,30.1581389 C386.684971,32.5599288 388.411304,34.6318761 390.860663,34.6318761 C391.828597,34.6318761 393.035141,34.2134055 393.483885,33.2659076 L393.498873,33.2659076 C393.495276,33.7245806 393.530648,34.0465045 393.677232,34.284978 L396.854415,34.284978 Z M393.392758,30.151743 C393.392758,31.6678615 392.738376,32.3994237 391.825899,32.3994237 C390.914321,32.3994237 390.276726,31.6678615 390.276726,30.151743 C390.276726,28.6350155 390.914321,27.9040624 391.825899,27.9040624 C392.738376,27.9040624 393.392758,28.6350155 393.392758,30.151743 L393.392758,30.151743 Z M351.703882,27.9098491 L357.717118,19.1155702 L354.892756,15 L346,28.0009137 L354.915537,41 L357.805848,36.7750914 L351.703882,27.9098491 Z M354.538736,28.0009137 L359.167969,21.2316793 L363.810991,28.0009137 L359.188053,34.7549199 L354.538736,28.0009137 Z" id="Black-Diamond-Black"></path>
      </g>
    </g>
  </g>
</svg>
