<?xml version="1.0" encoding="UTF-8"?>
<svg xmlns="http://www.w3.org/2000/svg" xmlns:xlink="http://www.w3.org/1999/xlink" width="80px" height="27px" viewBox="0 0 80 27">
  <!-- Generator: Sketch 61.2 (89653) - https://sketch.com -->
  <title>Bliss-Black</title>
  <desc>Created with Sketch.</desc>
  <g id="Page-1" stroke="none" stroke-width="1" fill="none" fill-rule="evenodd">
    <g id="Desktop-HD" transform="translate(-380.000000, -418.000000)" fill="#121118">
      <path d="M385.743192,427.668084 L385.816233,427.668084 C386.390698,426.953028 387.140712,426.401154 387.992145,426.067008 C388.951059,425.67879 389.976794,425.485066 391.010383,425.496972 C393.301354,425.496972 395.25186,426.379875 396.861901,428.145681 C398.471942,429.911487 399.276963,432.131584 399.276963,434.80597 L399.276963,435.505182 C399.276963,438.155076 398.435422,440.399664 396.75234,442.238947 C395.069258,444.078229 393.008798,444.998266 390.57096,444.999056 C389.435555,445.017035 388.31065,444.778076 387.279407,444.299844 C386.329322,443.855517 385.510157,443.170713 384.902044,442.312423 L384.830181,442.312423 L384.241142,444.043861 C384.158307,444.284902 383.932724,444.446653 383.679198,444.446797 L380.589097,444.446797 C380.431848,444.446805 380.281124,444.383563 380.170487,444.271153 C380.05985,444.158743 379.998485,444.006498 380.000028,443.848319 L380.000028,419.282283 C380.000028,418.955026 380.26378,418.689731 380.589097,418.689731 L385.148263,418.689731 C385.47358,418.689731 385.737302,418.955026 385.737302,419.282283 L385.743192,427.668084 Z M389.437648,440.258637 C390.63222,440.258637 391.564866,439.816988 392.235585,438.93369 C392.906305,438.050392 393.241665,436.8483 393.241665,435.327416 C393.241665,433.782039 392.906305,432.557431 392.235585,431.653591 C391.564866,430.749752 390.63222,430.291906 389.437648,430.280055 C388.241505,430.280055 387.308467,430.721704 386.638532,431.605002 C385.968598,432.4883 385.633631,433.690391 385.633631,435.211276 C385.633631,436.756652 385.968598,437.983236 386.638532,438.891026 C387.308467,439.798816 388.241505,440.254686 389.437648,440.258637 M401.992435,418.689731 L406.546887,418.689731 C406.872205,418.689731 407.135927,418.955026 407.135927,419.282283 L407.135927,437.781768 C407.135927,438.71484 407.325205,439.352822 407.703761,439.695712 C408.082317,440.038602 408.704343,440.163433 409.569838,440.070205 L409.611071,440.070205 C409.722193,440.070205 409.828748,440.114692 409.907213,440.193848 C409.985678,440.273003 410.029602,440.380317 410.02929,440.492102 L410.02929,443.986976 C410.029549,444.191188 409.883993,444.366098 409.684112,444.401763 C409.189318,444.491831 408.792306,444.555826 408.493074,444.59612 C408.092673,444.648113 407.689259,444.673056 407.285543,444.670924 C405.311083,444.670924 403.836128,444.186074 402.860679,443.216658 C401.885229,442.247242 401.397505,440.781663 401.397505,438.81992 L401.397505,419.282283 C401.397505,418.955026 401.661227,418.689731 401.986544,418.689731 M421.468435,431.568264 L421.468435,431.274358 C421.468435,429.457197 422.163108,428.035072 423.552456,427.007981 C424.941804,425.98089 426.748191,425.467345 428.971619,425.467345 C431.239814,425.467345 433.050128,425.951658 434.402563,426.920283 C435.754997,427.888909 436.431607,429.232027 436.432393,430.949639 C436.432394,431.173021 436.252725,431.354292 436.030668,431.354945 L431.768378,431.354945 C431.482319,431.351304 431.238655,431.144889 431.186407,430.861941 C431.121615,430.496762 430.93853,430.16341 430.665696,429.913858 C430.287926,429.570177 429.75779,429.398337 429.07529,429.398337 C428.490177,429.398337 428.0268,429.533439 427.685157,429.803643 C427.346799,430.066235 427.155818,430.477415 427.172693,430.906975 C427.158212,431.311665 427.310379,431.704429 427.593267,431.992531 C427.873649,432.274586 428.28205,432.464598 428.818469,432.562567 C429.81905,432.759294 430.623678,432.917308 431.232352,433.036609 C431.651744,433.113185 432.06697,433.211282 432.476404,433.330515 C433.108649,433.505959 433.716851,433.759527 434.287111,434.085426 C434.801125,434.38443 435.274353,434.749335 435.694915,435.170982 C436.098833,435.611701 436.404493,436.13414 436.591433,436.703323 C436.797411,437.300098 436.90215,437.927473 436.901274,438.559197 L436.901274,438.927764 C436.901274,440.792329 436.169681,442.270154 434.706507,443.361241 C433.243333,444.452327 431.366261,444.998266 429.07529,444.999056 C426.660228,444.999056 424.775302,444.47761 423.420511,443.434717 C422.065721,442.391825 421.340417,440.865015 421.2446,438.854288 C421.2446,438.746794 421.287048,438.643703 421.362607,438.567693 C421.438166,438.491684 421.540646,438.448982 421.647503,438.448982 L425.898011,438.448982 C426.192117,438.445726 426.443538,438.661214 426.487051,438.953836 C426.578941,439.570091 426.808666,440.057959 427.176227,440.417441 C427.639604,440.870941 428.273804,441.098086 429.078824,441.098876 C429.761325,441.098876 430.297743,440.951528 430.68808,440.656832 C431.073696,440.376229 431.294665,439.92054 431.277119,439.4421 C431.298293,438.97865 431.118143,438.528834 430.783504,438.209591 C430.454428,437.903834 429.960813,437.664838 429.302659,437.492602 C429.131838,437.442828 428.644113,437.339724 427.839485,437.179735 C427.034857,437.019746 426.376311,436.866867 425.863847,436.719914 C425.262413,436.523545 424.680637,436.270799 424.126181,435.965002 C423.651583,435.701546 423.215489,435.373323 422.830294,434.989661 C422.399942,434.549438 422.063939,434.025085 421.843064,433.449025 C421.602577,432.853116 421.478578,432.216147 421.477859,431.573004 M438.822715,431.573004 L438.822715,431.279098 C438.822715,429.461938 439.517781,428.039812 440.907914,427.012721 C442.298047,425.985631 444.104435,425.472085 446.327077,425.472085 C448.595272,425.472085 450.405586,425.956398 451.758021,426.925024 C453.110455,427.893649 453.787458,429.236768 453.789029,430.95438 C453.789029,431.178224 453.608643,431.359685 453.386126,431.359685 L449.113234,431.359685 C448.827175,431.356045 448.58351,431.14963 448.531263,430.866682 C448.46647,430.501502 448.283385,430.16815 448.010552,429.918598 C447.632781,429.574918 447.102646,429.403078 446.420145,429.403078 C445.835033,429.403078 445.371655,429.53818 445.030012,429.808383 C444.691654,430.070975 444.500674,430.482155 444.517548,430.911716 C444.503067,431.316405 444.655235,431.709169 444.938122,431.997272 C445.218505,432.279327 445.626906,432.469339 446.163324,432.567307 C447.163906,432.764035 447.968926,432.922049 448.578386,433.041349 C448.997368,433.118027 449.412197,433.216123 449.821259,433.335255 C450.451826,433.510691 451.058422,433.763852 451.627254,434.088982 C452.143337,434.387557 452.618566,434.752478 453.040949,435.174538 C453.444012,435.614328 453.749243,436.135507 453.936289,436.703323 C454.142928,437.30078 454.24807,437.92898 454.247306,438.561567 L454.247306,438.930134 C454.247306,440.794699 453.515714,442.272525 452.052541,443.363611 C450.589367,444.454698 448.711901,444.999846 446.420145,444.999056 C444.005084,444.999056 442.120157,444.47761 440.765367,443.434717 C439.410576,442.391825 438.684879,440.865015 438.588277,438.854288 C438.588277,438.630443 438.768663,438.448982 438.99118,438.448982 L443.239332,438.448982 C443.533439,438.445726 443.784859,438.661214 443.828372,438.953836 C443.920262,439.570091 444.149987,440.057959 444.517548,440.417441 C444.980926,440.870941 445.615125,441.098086 446.420145,441.098876 C447.102646,441.098876 447.639064,440.951528 448.029401,440.656832 C448.414851,440.376089 448.635775,439.920495 448.618441,439.4421 C448.639153,438.978493 448.458588,438.528711 448.123647,438.209591 C447.795356,437.903834 447.301741,437.664838 446.642802,437.492602 C446.471981,437.442828 445.984256,437.339724 445.179628,437.179735 C444.375,437.019746 443.716454,436.866867 443.20399,436.719914 C442.602846,436.523778 442.02144,436.271021 441.467502,435.965002 C440.992764,435.701764 440.556642,435.373519 440.171615,434.989661 C439.741263,434.549438 439.40526,434.025085 439.184385,433.449025 C438.943898,432.853116 438.819899,432.216147 438.81918,431.573004 M418.096773,426.049202 L413.502265,426.049202 C413.345024,426.047649 413.193682,426.10938 413.081938,426.220677 C412.970195,426.331974 412.907335,426.483597 412.907335,426.641784 L412.907335,443.849504 C412.907335,444.007691 412.970195,444.159314 413.081938,444.270611 C413.193682,444.381908 413.345024,444.443638 413.502265,444.442086 L418.096773,444.442086 C418.254014,444.443638 418.405356,444.381908 418.5171,444.270611 C418.628843,444.159314 418.691703,444.007691 418.691703,443.849504 L418.691703,426.646524 C418.691703,426.488337 418.628843,426.336714 418.5171,426.225417 C418.405356,426.11412 418.254014,426.05239 418.096773,426.053972 M458.417701,428.289079 C458.579275,428.136796 458.662619,427.918459 458.643892,427.696527 C458.662119,427.452874 458.567309,427.214438 458.387071,427.050645 C458.217427,426.909617 457.955894,426.838511 457.600114,426.838511 L456.447953,426.838511 L456.447953,429.829715 L456.912116,429.829715 L456.912116,428.543877 L457.399841,428.543877 L458.213893,429.829715 L458.71222,429.829715 L457.859291,428.509509 C458.063429,428.495086 458.25829,428.418165 458.417701,428.289079 M457.399841,428.170569 L456.91565,428.170569 L456.91565,427.222485 L457.529429,427.222485 C457.608298,427.222485 457.687057,427.228437 457.765045,427.240261 C457.839009,427.249187 457.910808,427.271257 457.977099,427.305442 C458.037658,427.337365 458.089146,427.384266 458.126715,427.441729 C458.168458,427.513452 458.1889,427.595704 458.185619,427.67875 C458.190027,427.775446 458.167591,427.871468 458.120825,427.956065 C458.078584,428.021735 458.017897,428.073297 457.946469,428.104203 C457.867003,428.137197 457.782561,428.15643 457.696716,428.161088 C457.603648,428.169384 457.50469,428.172939 457.401019,428.172939 M459.799587,427.323219 C459.667242,427.01951 459.478518,426.743986 459.243534,426.511422 C458.639539,425.914037 457.782053,425.653799 456.950412,425.815485 C456.118771,425.977172 455.419429,426.540084 455.080203,427.320849 C454.941387,427.638126 454.871501,427.981559 454.875218,428.328188 C454.870778,428.680242 454.940645,429.029237 455.080203,429.352118 C455.210785,429.657272 455.398803,429.93414 455.6339,430.16747 C455.868755,430.39897 456.146548,430.58178 456.451487,430.705508 C456.766513,430.834004 457.103496,430.899226 457.443429,430.897495 C457.782653,430.899812 458.118978,430.834562 458.433016,430.705508 C458.735869,430.581787 459.011348,430.398919 459.243534,430.16747 C459.477043,429.933311 459.664148,429.65661 459.794875,429.352118 C459.93372,429.029012 460.003556,428.680171 459.999861,428.328188 C460.002859,427.981629 459.933004,427.638346 459.794875,427.320849 M459.376657,429.202795 C459.274547,429.461022 459.124182,429.697168 458.933699,429.898451 C458.542911,430.303836 458.00477,430.531502 457.443429,430.528927 C457.156353,430.531182 456.871936,430.473475 456.608172,430.359457 C456.357328,430.252501 456.130533,430.0957 455.941379,429.898451 C455.750075,429.697818 455.599601,429.461501 455.498421,429.202795 C455.39011,428.924191 455.335728,428.627329 455.338203,428.328188 C455.336148,428.034853 455.390555,427.743891 455.498421,427.471357 C455.813771,426.670293 456.586989,426.147344 457.443429,426.155891 C457.726972,426.15353 458.007871,426.210852 458.268085,426.324176 C458.774359,426.543558 459.172876,426.95682 459.375479,427.472542 C459.482971,427.745149 459.536979,428.036113 459.534519,428.329373 C459.537369,428.628438 459.483387,428.925296 459.375479,429.20398 M415.840752,418 C414.546502,418 413.379715,418.78435 412.884537,419.987258 C412.389359,421.190166 412.663324,422.574698 413.578666,423.495159 C414.494007,424.415621 415.870432,424.69071 417.066026,424.192136 C418.26162,423.693562 419.040891,422.519528 419.040414,421.217559 C419.039764,419.440359 417.607416,418 415.840752,418 Z" id="Bliss-Black"></path>
    </g>
  </g>
</svg>
