<?xml version="1.0" encoding="UTF-8"?>
<svg xmlns="http://www.w3.org/2000/svg" xmlns:xlink="http://www.w3.org/1999/xlink" width="135px" height="20px" viewBox="0 0 135 20">
  <!-- Generator: Sketch 61.2 (89653) - https://sketch.com -->
  <title>Burrow-Black</title>
  <desc>Created with Sketch.</desc>
  <g id="Page-1" stroke="none" stroke-width="1" fill="none" fill-rule="evenodd">
    <g id="Merchants" transform="translate(-380.000000, -3300.000000)" fill="#121118">
      <path d="M416.278586,3300.71505 C416.810878,3303.2681 417.135808,3305.84418 417.097854,3308.45234 C417.072859,3310.17243 416.888177,3311.87356 416.124915,3313.46447 C414.451202,3316.953 409.837381,3317.692 407.288394,3314.86793 C406.36961,3313.84978 405.893324,3312.61888 405.662818,3311.30306 C405.164777,3308.4573 405.403152,3305.61968 405.828986,3302.78884 C405.948405,3301.99654 406.096058,3301.20832 406.234917,3300.39705 L402.341312,3300.39705 C402.296414,3300.54566 402.24411,3300.66311 402.22791,3300.78461 C401.993238,3302.55395 401.683583,3304.31832 401.551667,3306.09488 C401.348933,3308.82364 401.471592,3311.54517 402.33622,3314.18088 C403.281387,3317.06141 405.181903,3319.0033 408.264109,3319.67634 C410.31089,3320.12308 412.37526,3320.10953 414.422967,3319.62214 C416.648413,3319.09274 418.315647,3317.84738 419.408004,3315.87975 C420.157842,3314.5296 420.549425,3313.06833 420.75725,3311.55827 C421.123838,3308.89456 421.063203,3306.22768 420.735958,3303.56668 C420.604968,3302.50065 420.382794,3301.44546 420.201814,3300.3835 L416.223968,3300.3835 C416.249888,3300.5416 416.260534,3300.62878 416.278586,3300.71505 L416.278586,3300.71505 Z M428.038088,3309.43796 C428.101038,3309.45693 428.163987,3309.47545 428.226474,3309.49397 C428.260726,3309.50617 428.294515,3309.5292 428.328767,3309.5292 C429.697916,3309.53417 431.067065,3309.55043 432.436215,3309.53598 C433.50728,3309.52469 434.584826,3309.53824 435.647097,3309.42893 C437.210186,3309.26721 438.015105,3308.37509 438.072037,3306.89937 C438.135912,3305.24477 437.365708,3304.21397 435.809562,3303.91088 C435.395299,3303.83002 434.966688,3303.78982 434.544094,3303.78666 C432.786602,3303.77311 431.028648,3303.78033 429.270693,3303.78214 C429.108691,3303.78214 428.947152,3303.7975 428.630553,3303.81331 C428.432448,3305.69557 428.235268,3307.56699 428.038088,3309.43796 L428.038088,3309.43796 Z M434.694524,3312.82982 L428.271372,3312.82982 C428.677765,3315.11953 429.073051,3317.3496 429.47389,3319.60994 L425.531684,3319.60994 C424.061168,3313.19616 423.732535,3306.79638 425.576119,3300.37085 C425.707109,3300.36001 425.832082,3300.34014 425.957518,3300.34059 C429.104525,3300.34601 432.252458,3300.3171 435.398539,3300.37492 C437.245363,3300.40879 438.996375,3300.84469 440.403479,3302.12573 C441.269496,3302.91441 441.801326,3303.8919 441.993877,3305.03382 C442.527558,3308.20525 441.480562,3310.54283 438.850573,3311.91376 C438.770035,3311.95532 438.695977,3312.00862 438.564061,3312.09083 C439.941079,3314.58109 441.313005,3317.06322 442.721035,3319.60994 L438.373361,3319.60994 C437.148162,3317.35231 435.921575,3315.09152 434.694524,3312.82982 L434.694524,3312.82982 Z M449.546416,3309.54005 L450.195813,3309.54005 C452.044952,3309.54005 453.89409,3309.54727 455.743229,3309.53508 C456.203315,3309.53237 456.668955,3309.50346 457.121173,3309.42531 C457.923777,3309.28709 458.652324,3308.99664 459.08649,3308.25629 C460.151075,3306.44179 459.12537,3304.19229 457.020268,3303.90771 C455.82099,3303.74555 454.588848,3303.80382 453.370592,3303.7844 C452.302304,3303.76769 451.233553,3303.78124 450.150453,3303.78124 C449.649635,3305.67524 449.468655,3307.54712 449.546416,3309.54005 L449.546416,3309.54005 Z M446.928925,3300.43635 C450.542961,3300.43635 454.076458,3300.39253 457.608105,3300.46706 C458.483842,3300.48558 459.399848,3300.77874 460.213099,3301.13017 C462.780601,3302.23956 463.67115,3304.54372 463.478136,3307.0936 C463.312894,3309.27625 462.206188,3310.85225 460.257997,3311.89389 C460.176995,3311.9368 460.098772,3311.98468 460.020548,3312.03301 C460.006662,3312.0416 459.999719,3312.06238 459.952507,3312.13194 C461.310085,3314.58696 462.682474,3317.07 464.088652,3319.6131 L459.743755,3319.6131 C458.527814,3317.37445 457.292432,3315.10055 456.051959,3312.81673 L449.73943,3312.81673 C449.937536,3315.11998 450.349021,3317.35773 450.941486,3319.61085 L446.901616,3319.61085 C445.422305,3313.20926 445.086729,3306.8027 446.928925,3300.43635 L446.928925,3300.43635 Z M383.8004,3308.27481 C384.44054,3308.27481 384.935803,3308.27617 385.431067,3308.27481 C387.53802,3308.26849 389.645437,3308.28566 391.75239,3308.24545 C392.881313,3308.22422 393.616803,3307.66953 393.901001,3306.76611 C394.429591,3305.08893 393.450635,3303.69135 391.660743,3303.66153 C389.369107,3303.62404 387.076546,3303.65115 384.784447,3303.65521 C384.680766,3303.65521 384.57801,3303.70038 384.397956,3303.74329 C384.203554,3305.21812 384.008688,3306.69565 383.8004,3308.27481 L383.8004,3308.27481 Z M384.387311,3316.35088 C387.077472,3316.35088 389.625534,3316.38792 392.171744,3316.331 C393.113208,3316.31022 393.961173,3315.89465 394.297212,3314.93794 C394.793864,3313.52365 394.299526,3311.77283 392.165727,3311.56866 C391.908838,3311.54427 391.650097,3311.52078 391.392282,3311.52033 C389.099258,3311.51671 386.806697,3311.51807 384.514135,3311.51942 C384.315567,3311.51942 384.117461,3311.53569 383.788366,3311.55014 C383.9911,3313.17719 384.186428,3314.74325 384.387311,3316.35088 L384.387311,3316.35088 Z M381.253727,3300.38305 C381.349539,3300.36317 381.403231,3300.34285 381.456924,3300.34285 C385.10336,3300.34781 388.750722,3300.33336 392.397158,3300.3713 C393.747793,3300.38576 395.038256,3300.71053 396.147739,3301.5218 C398.681915,3303.3756 398.717556,3307.55073 396.219946,3309.48991 C396.078772,3309.59922 395.934822,3309.70582 395.760322,3309.83817 C395.860301,3309.90954 395.926953,3309.96736 396.002863,3310.00937 C397.908934,3311.05778 398.676824,3312.69431 398.50973,3314.76539 C398.335693,3316.92861 397.158169,3318.41608 395.066953,3319.10764 C394.136135,3319.41571 393.121076,3319.60768 392.140269,3319.6244 C388.623435,3319.68493 385.105211,3319.64789 381.587914,3319.64653 C381.49673,3319.64653 381.406009,3319.63162 381.249561,3319.61807 C379.579088,3313.20068 379.586493,3306.79141 381.253727,3300.38305 L381.253727,3300.38305 Z M493.805396,3319.61627 L498.784416,3319.61627 C500.255858,3316.25557 501.719431,3312.91339 503.229754,3309.46461 C504.738688,3312.93372 506.195319,3316.28177 507.647783,3319.62123 L512.559688,3319.62123 C514.731905,3315.09468 515.698363,3305.19327 514.44169,3300.36317 L510.694349,3300.36317 C511.136383,3302.93971 511.363649,3305.50043 511.230808,3308.08555 C511.085931,3310.91233 510.390711,3314.9533 509.871378,3315.71533 C508.143047,3311.76877 506.424436,3307.84479 504.715545,3303.94295 L501.826816,3303.94295 C500.101725,3307.87054 498.384502,3311.78096 496.666817,3315.69093 C496.598776,3315.68371 496.530735,3315.67603 496.462231,3315.66835 C496.160907,3314.0937 495.792931,3312.52763 495.571219,3310.94259 C495.077807,3307.41522 495.194912,3303.89055 495.860509,3300.36724 L491.9146,3300.36724 C490.854643,3306.95809 491.4684,3313.36058 493.805396,3319.61627 L493.805396,3319.61627 Z M484.247271,3310.5993 C484.254677,3307.51775 483.32571,3305.49682 480.958165,3304.27766 C479.598736,3303.57752 478.122665,3303.38012 476.601696,3303.47001 C473.048758,3303.6796 470.607155,3305.88077 470.25399,3309.3169 C470.039222,3311.4074 470.500697,3313.34929 472.14849,3314.85754 C473.364431,3315.97009 474.870125,3316.4227 476.491998,3316.5424 C480.691556,3316.85182 484.31022,3314.61813 484.247271,3310.5993 L484.247271,3310.5993 Z M478.091653,3300 C478.924807,3300.14003 479.768144,3300.23715 480.589263,3300.42731 C485.368326,3301.53219 488.184385,3305.04782 488.206787,3309.84721 C488.218637,3312.36728 487.641447,3314.68363 485.903858,3316.62145 C484.285226,3318.42692 482.178272,3319.3737 479.796841,3319.76352 C476.956713,3320.22878 474.179996,3320.02596 471.577779,3318.73182 C468.346994,3317.12556 466.614497,3314.51469 466.312247,3310.99364 C466.09609,3308.48215 466.571914,3306.13101 468.126671,3304.07304 C469.809179,3301.84567 472.163764,3300.69969 474.904377,3300.22766 C475.409361,3300.14093 475.91851,3300.07544 476.425808,3300 L478.091653,3300 Z" id="Burrow-Black"></path>
    </g>
  </g>
</svg>
