<?xml version="1.0" encoding="UTF-8"?>
<svg xmlns="http://www.w3.org/2000/svg" xmlns:xlink="http://www.w3.org/1999/xlink" width="157px" height="28px" viewBox="0 0 157 28">
  <!-- Generator: Sketch 61.2 (89653) - https://sketch.com -->
  <title>Skullcandy-Black</title>
  <desc>Created with Sketch.</desc>
  <g id="Page-1" stroke="none" stroke-width="1" fill="none" fill-rule="evenodd">
    <g id="Desktop-HD" transform="translate(-380.000000, -2284.000000)" fill="#121118">
      <path d="M464.188897,2285.56272 L464.188897,2297.59922 C464.777451,2293.695 467.532183,2290.96258 471.963296,2290.96258 C474.925019,2290.96258 477.689726,2292.20723 478.769573,2294.76001 C479.642428,2291.87503 482.75927,2290.96258 485.808278,2290.96258 C488.888211,2290.96258 492.596101,2291.64126 492.596101,2295.2999 L492.596101,2295.2999 L492.596101,2303.23679 C492.596101,2304.2895 492.682389,2305.34171 492.894368,2306.05877 L492.894368,2306.05877 L492.894368,2291.3755 L496.93095,2291.3755 L496.93095,2293.50011 L497.020729,2293.50011 C498.097085,2291.78841 499.95103,2290.96258 501.74562,2290.96258 C505.781704,2290.96258 507.116923,2292.96711 507.354838,2296.0898 C508.176819,2293.19891 510.3415,2290.96258 513.82544,2290.96258 C515.649458,2290.96258 517.444049,2291.72935 518.400699,2293.23435 L518.400699,2293.23435 L518.460552,2293.23435 L518.460552,2285.56272 L522.706619,2285.56272 L522.706619,2291.3755 L525.666347,2291.3755 L529.16525,2301.82088 L529.225103,2301.82088 L532.6043,2291.3755 L537,2291.3755 L530.540371,2308.54806 C529.613648,2310.997 528.148249,2312 525.217949,2312 C524.35058,2312 523.483211,2311.94143 522.616341,2311.85285 L522.616341,2311.85285 L522.616341,2308.40042 C523.423857,2308.45997 524.261299,2308.5771 525.097744,2308.54806 C526.563642,2308.40042 527.041967,2306.89592 526.563642,2305.68572 L526.563642,2305.68572 L522.706619,2295.54499 L522.706619,2306.63016 L518.670037,2306.63016 L518.670037,2304.68272 L518.609685,2304.68272 C517.623608,2306.33536 515.888371,2307.04307 513.915219,2307.04307 C510.404346,2307.04307 508.249141,2304.8033 507.397234,2301.89765 L507.397234,2301.89765 L507.397234,2306.63016 L503.150668,2306.63016 L503.150668,2298.0141 C503.150668,2295.5066 502.403005,2294.26688 500.429853,2294.26688 C498.127011,2294.26688 497.140435,2295.53613 497.140435,2298.63421 L497.140435,2298.63421 L497.140435,2306.63016 L488.828358,2306.63016 C488.678726,2306.15819 488.55902,2305.65669 488.529592,2305.15469 C487.183898,2306.54157 485.209749,2307.04307 483.325878,2307.04307 C480.88687,2307.04307 478.863342,2306.04056 478.252842,2303.90168 C476.978972,2305.95099 474.729499,2307.04307 471.873017,2307.04307 C467.735683,2307.04307 464.800395,2304.48931 464.188897,2300.71994 L464.188897,2300.71994 L464.188897,2306.63016 L459.942331,2306.63016 L459.942331,2285.56272 L464.188897,2285.56272 Z M391.076285,2284 L393.132234,2284.09745 L394.111328,2284.1821 L395.444054,2284.50937 L396.553328,2284.95625 L397.087516,2285.34849 L397.441147,2285.73138 L397.736421,2286.15758 L397.911491,2286.6581 L397.96486,2287.29543 L397.887051,2288.05629 L397.68804,2288.76302 L397.329422,2289.93089 L397.00023,2290.90141 L396.912945,2291.42604 L396.917933,2291.83354 L396.980778,2292.24547 L397.135398,2292.59883 C397.139388,2292.60277 397.159838,2292.61114 397.165325,2292.6136 L397.360844,2292.88576 L397.719962,2293.29769 L398.088058,2293.67024 L398.601296,2294.08266 L399.37739,2294.7008 L400.114578,2295.5345 L400.735054,2296.54489 L401.122602,2298.00657 L401.13158,2299.29305 L401.044793,2300.06818 L400.878202,2300.65778 L400.614849,2301.20948 L400.11807,2302.18738 L399.311053,2303.24894 C399.297586,2303.26912 399.277136,2303.30505 399.262173,2303.32031 L398.644191,2303.93156 L397.808744,2304.65206 L396.834138,2305.43212 L394.967724,2306.61426 L392.846935,2307.82347 C392.834964,2307.82839 392.826984,2307.83332 392.815512,2307.83824 L392.733214,2308.07841 L392.63346,2308.62075 L392.578594,2309.17245 C392.575602,2309.18181 392.574105,2309.18968 392.570614,2309.19952 L392.425471,2309.66608 L392.178577,2309.99139 C392.171594,2309.99779 392.163115,2309.99877 392.151643,2310.00369 L391.781054,2310.19317 L391.18452,2310.18825 L391.021919,2310.18284 C390.999973,2310.17201 390.973039,2310.15528 390.950096,2310.141 L390.773031,2309.98499 L390.633873,2309.70496 L390.586489,2309.14834 L390.559056,2308.94902 L390.462294,2308.84616 L390.07724,2308.85207 L389.996937,2308.9126 L389.949055,2309.0317 L389.919627,2309.27236 L389.87773,2309.6144 L389.826855,2309.82209 L389.701663,2310.04208 L389.448286,2310.19613 L389.073207,2310.22024 L388.854245,2310.17152 L388.733043,2309.98056 L388.715586,2309.81569 L388.727058,2309.41754 L388.630794,2309.18377 L388.516076,2309.06172 L388.351979,2308.9692 L387.946475,2308.93868 L387.588355,2308.92097 L386.82523,2308.81023 L386.249645,2308.52183 L385.861099,2308.20341 L385.534402,2307.71225 L385.480036,2307.46174 L385.110444,2306.71318 L384.783248,2306.12999 L384.219632,2305.24756 L383.662501,2304.57332 L383.128314,2304.02703 L382.492875,2303.4522 L381.88038,2302.96694 L381.365645,2302.47627 L381.026478,2302.05893 L380.717238,2301.64208 L380.475332,2301.20062 L380.299763,2300.72225 L380.172077,2300.15825 L380.160107,2299.70399 L380.172077,2299.42248 L380.21996,2299.1961 L380.317221,2298.98053 L380.462863,2298.77826 L380.686812,2298.69312 L380.862381,2298.73594 L381.019994,2298.8949 L381.074859,2299.20249 L381.099798,2299.79061 L381.165636,2300.14644 L381.317263,2300.48946 L381.547697,2300.83889 L381.832498,2301.1765 L382.244485,2301.47672 L382.765206,2301.79514 L383.177194,2301.93638 L383.552771,2301.92457 L383.928847,2301.87536 L384.401685,2301.57515 L384.946846,2301.11449 L385.668572,2300.2867 L385.968835,2299.88215 L386.010233,2299.65133 L385.691017,2298.85454 L385.301973,2298.18916 L384.924401,2297.62023 L384.27749,2296.85789 L383.850539,2296.47746 L383.266973,2296.02173 L382.823064,2295.76335 L382.362196,2295.5847 L382.025523,2295.51629 L381.615531,2295.52565 L381.417018,2295.65114 L381.262398,2295.93561 L381.257411,2296.47549 L381.235464,2297.00751 L381.194565,2297.28951 L381.022488,2297.46422 L380.8549,2297.55478 L380.648906,2297.53952 L380.496779,2297.48834 L380.326697,2297.35595 C380.323206,2297.34906 380.324203,2297.34266 380.324203,2297.33331 L380.203001,2297.17878 L380.097261,2296.93024 L380.019951,2296.58672 L380,2296.02764 L380.077809,2295.50251 L380.291284,2294.75248 C380.296771,2294.74854 380.300262,2294.74608 380.306248,2294.74214 L380.543165,2294.23769 L380.804523,2293.77605 L381.362153,2293.05555 L381.561164,2292.67266 L381.871901,2291.52447 L382.390127,2290.12234 L383.175697,2288.58634 L383.849542,2287.59072 L384.804196,2286.49717 L385.68154,2285.74122 L386.573848,2285.13785 L387.780882,2284.57434 L388.720573,2284.29923 L389.985964,2284.0438 L391.076285,2284 Z M534.882902,2304.25195 C535.680941,2304.25195 536.349299,2304.87353 536.349299,2305.68754 C536.349299,2306.51829 535.680941,2307.13939 534.882902,2307.13939 C534.081371,2307.13939 533.408026,2306.51829 533.408026,2305.68754 C533.408026,2304.87353 534.081371,2304.25195 534.882902,2304.25195 Z M417.572833,2285.06083 C422.028386,2285.06083 426.12532,2286.97873 426.12532,2291.84708 L426.12532,2291.84708 L421.579988,2291.84708 C421.430355,2289.31005 419.606337,2288.6609 417.363348,2288.6609 C415.868022,2288.6609 414.133783,2289.28052 414.133783,2291.05078 C414.133783,2292.67389 415.150784,2292.88059 420.503134,2294.23744 C421.836857,2294.5662 425.543749,2295.33198 426.572721,2298.55852 L426.572721,2298.55852 L426.572721,2285.56282 L430.818788,2285.56282 L430.818788,2296.86355 L436.171636,2291.3756 L444.603419,2291.3756 L444.603419,2299.99165 C444.603419,2302.49916 445.351082,2303.73839 447.324733,2303.73839 C449.627076,2303.73839 450.614151,2302.46963 450.614151,2299.37155 L450.614151,2299.37155 L450.614151,2291.3756 L454.860218,2291.3756 L454.860218,2306.63026 L450.823137,2306.63026 L450.823137,2304.50565 L450.733856,2304.50565 C449.657002,2306.21734 447.803057,2307.04317 446.008966,2307.04317 C441.49356,2307.04317 440.357352,2304.53518 440.357352,2300.75842 L440.357352,2300.75842 L440.357352,2292.18174 L435.36412,2296.98167 L441.853675,2306.63026 L436.710312,2306.63026 L432.463746,2299.81448 L430.818788,2301.37755 L430.818788,2306.63026 L426.572721,2306.63026 L426.572721,2302.26046 C425.708843,2305.14347 422.77156,2307.13225 417.961877,2307.13225 C413.236987,2307.13225 408.810862,2304.83047 408.871213,2299.63731 L408.871213,2299.63731 L413.416047,2299.63731 C413.416047,2302.4401 415.629109,2303.53218 418.140937,2303.53218 C419.785896,2303.53218 422.297724,2303.05971 422.297724,2300.90607 C422.297724,2298.63431 419.097587,2298.25092 415.9583,2297.4246 C412.788089,2296.59828 409.588451,2295.38809 409.588451,2291.43465 C409.588451,2287.12638 413.715311,2285.06083 417.572833,2285.06083 Z M534.882902,2304.46406 C534.198084,2304.46406 533.673872,2304.99706 533.673872,2305.68754 C533.673872,2306.39427 534.198084,2306.92727 534.882902,2306.92727 C535.559739,2306.92727 536.083951,2306.39427 536.083951,2305.68754 C536.083951,2304.99706 535.559739,2304.46406 534.882902,2304.46406 Z M459.464505,2285.56292 L459.464505,2306.63036 L455.218438,2306.63036 L455.218438,2285.56292 L459.464505,2285.56292 Z M534.972831,2304.85079 C535.379831,2304.85079 535.571859,2305.00877 535.571859,2305.33261 C535.571859,2305.63774 535.375342,2305.76471 535.120967,2305.79227 L535.120967,2305.79227 L535.610763,2306.53739 L535.324966,2306.53739 L534.85911,2305.81196 L534.577303,2305.81196 L534.577303,2306.53739 L534.311955,2306.53739 L534.311955,2304.85079 Z M386.929973,2300.87285 L386.679089,2301.20948 L386.404265,2301.6785 L385.959358,2302.681 L385.623184,2303.65595 L385.515449,2304.11217 L385.556348,2304.7687 L385.632661,2304.93406 L385.756357,2305.05809 L385.987788,2305.14766 L386.215229,2305.15356 L386.567364,2305.03397 L386.862638,2304.97344 L387.975903,2304.9572 L388.466697,2304.98919 L389.082684,2305.25642 L389.520608,2305.66934 L389.651287,2305.72544 L389.859276,2305.75546 L390.105172,2305.70428 L390.323136,2305.52169 C390.388475,2305.39472 390.431869,2305.25544 390.357053,2305.11025 L386.929973,2300.87285 Z M534.929936,2305.06242 L534.577303,2305.06242 L534.577303,2305.59935 L534.855619,2305.59935 C535.090542,2305.59935 535.305513,2305.58754 535.305513,2305.32129 C535.305513,2305.09736 535.109994,2305.06242 534.929936,2305.06242 L534.929936,2305.06242 Z M488.350033,2299.16475 C487.632297,2299.78485 486.136472,2299.81487 484.821204,2300.05012 C483.505935,2300.31588 482.309375,2300.75882 482.309375,2302.29285 C482.309375,2303.8564 483.535363,2304.24028 484.910983,2304.24028 C488.229829,2304.24028 488.350033,2301.6437 488.350033,2300.7288 L488.350033,2300.7288 Z M485.598793,2293.76537 C483.98426,2293.76537 482.937332,2294.41452 482.7877,2296.06667 L482.7877,2296.06667 L479.148142,2296.06667 C479.18555,2296.28666 479.213482,2296.51206 479.229443,2296.74534 L479.229443,2296.74534 L475.073155,2296.74534 C474.804315,2295.03414 473.698033,2294.11972 471.933369,2294.11972 C469.212055,2294.11972 468.315259,2296.83393 468.315259,2299.07665 C468.315259,2301.26032 469.182628,2303.88643 471.844088,2303.88643 C473.817739,2303.88643 474.953948,2302.64621 475.222787,2300.78835 L475.222787,2300.78835 L478.324167,2300.78835 C479.051879,2298.72427 481.189128,2298.12483 483.325878,2297.83742 C485.927485,2297.45403 488.350033,2297.54213 488.350033,2295.83093 C488.350033,2294.03114 487.09362,2293.76537 485.598793,2293.76537 Z M514.961648,2294.11972 C512.18098,2294.11972 511.223832,2296.48007 511.223832,2298.98806 C511.223832,2301.37745 512.330613,2303.88643 514.961648,2303.88643 C517.772741,2303.88643 518.609685,2301.46653 518.609685,2298.95853 C518.609685,2296.48007 517.713387,2294.11972 514.961648,2294.11972 Z M394.543766,2295.032 C392.346165,2295.0394 390.569032,2296.8072 390.576985,2298.97758 C390.584494,2301.14796 392.374097,2302.90296 394.5707,2302.89658 C396.7683,2302.88869 398.545434,2301.12089 398.537976,2298.951 C398.530969,2296.78013 396.741865,2295.02464 394.543766,2295.032 Z" id="Skullcandy-Black"></path>
    </g>
  </g>
</svg>
